<?xml version="1.0" encoding="utf-8"?>
<!-- Generator: Adobe Illustrator 16.0.0, SVG Export Plug-In . SVG Version: 6.00 Build 0)  -->
<!DOCTYPE svg PUBLIC "-//W3C//DTD SVG 1.1//EN" "http://www.w3.org/Graphics/SVG/1.1/DTD/svg11.dtd">
<svg version="1.1" id="Layer_1" xmlns="http://www.w3.org/2000/svg" xmlns:xlink="http://www.w3.org/1999/xlink" x="0px" y="0px"
	 width="250px" height="250px" viewBox="0 0 250 250" enable-background="new 0 0 250 250" xml:space="preserve">
<circle opacity="0.7" fill="#9C9B9B" enable-background="new    " cx="125.045" cy="124.217" r="109.839"/>
<text transform="matrix(1.1121 0 0 1 33.9795 128.5293)" fill="#FFFFFF" font-family="'JCfg'" font-size="59.4903">Unique</text>
<text transform="matrix(1.1121 0 0 1 68.9912 188.4883)" fill="#FFFFFF" font-family="'JCfg'" font-size="49.9655">Villa</text>
<path opacity="0.9" fill="#FFFFFF" enable-background="new    " d="M81.815,78.367c2.333,0.985,4.937-7.035,5.56-8.907
	c0-0.001,0.001-0.003,0.002-0.003c0.03-0.024,0.057-0.047,0.082-0.077c1.782-0.458,3.551-1.074,5.297-1.818
	c-1.842,2.553-5.635,8.245-2.876,8.809c2.533,0.515,3.978-7.55,4.334-9.458c0.002-0.002,0.003-0.004,0.006-0.007
	c1.576-0.742,3.133-1.585,4.666-2.515c-1.637,2.67-5.017,8.658-2.151,8.915c2.624,0.233,3.367-7.777,3.558-9.673
	c0.047-0.057,0.083-0.124,0.109-0.192c1.498-0.973,2.969-2.022,4.41-3.13c-1.422,2.866-4.071,8.82-1.19,8.724
	c2.696-0.09,2.636-7.947,2.636-9.81c0.021-0.03,0.039-0.063,0.053-0.096c1.506-1.219,2.975-2.497,4.4-3.814
	c-1.018,2.715-3.367,9.604-0.264,9.039c2.742-0.501,1.661-8.03,1.419-9.817c0.062-0.117,0.086-0.252,0.069-0.372
	c0.292-0.277,0.583-0.56,0.87-0.84c0.862-0.844,1.719-1.704,2.568-2.582c-0.935,3.003-2.549,9.123,0.378,8.414
	c2.744-0.665,1.252-8.013,0.913-9.765c1.091-1.159,2.166-2.342,3.215-3.551c-0.686,3.033-1.773,9.129,1.133,8.134
	c2.706-0.927,0.606-7.81,0.081-9.561c1.031-1.233,2.034-2.487,2.999-3.766c-0.685,3.119-1.603,8.776,1.204,7.815
	c2.706-0.927,0.606-7.807,0.081-9.561c0.268-0.372,0.532-0.746,0.791-1.124c0.373-0.541-0.287-0.995-0.661-0.456
	c-0.193,0.282-0.39,0.56-0.588,0.837c-1.845-0.672-8.295-2.849-8.778,0.74c-0.351,2.6,5.242,1.274,7.838,0.562
	c-1.059,1.435-2.167,2.842-3.312,4.221c-1.8-0.659-8.324-2.882-8.811,0.728c-0.344,2.549,5.026,1.324,7.683,0.605
	c-1.059,1.233-2.147,2.44-3.253,3.619c-1.751-0.883-7.823-3.753-8.61-0.16c-0.559,2.546,4.744,1.876,7.405,1.422
	c-1.071,1.106-2.155,2.187-3.249,3.238c-0.169,0.162-0.342,0.325-0.513,0.487c-1.915-1.122-7.333-4.019-8.264-0.578
	c-0.65,2.405,4.037,2.224,6.784,1.951c-1.255,1.144-2.543,2.255-3.86,3.323c-1.563-1.344-6.61-5.43-7.982-1.969
	c-0.98,2.466,4.014,2.938,6.614,3.053c-1.481,1.146-2.995,2.229-4.535,3.232c-1.419-1.599-5.832-6.255-7.502-2.924
	c-1.181,2.351,3.43,3.437,5.971,3.884c-1.441,0.875-2.904,1.672-4.383,2.376c-1.158-1.671-5.148-7.139-7.11-3.87
	c-1.368,2.276,3.071,3.877,5.499,4.596c-1.686,0.718-3.39,1.309-5.105,1.749c-0.877-1.98-3.809-8.153-6.151-5.187
	c-1.6,2.027,2.124,4.388,4.351,5.594c-1.582,0.306-3.171,0.479-4.762,0.497c-1.345-0.75-7.843-4.324-8.768-0.561
	c-0.726,2.963,6.563,1.792,8.376,1.51c0.021,0.004,0.04,0.009,0.062,0.009c0.889-0.006,1.786-0.042,2.691-0.143
	c0.934-0.104,1.866-0.257,2.795-0.451C83.965,71.906,79.219,77.268,81.815,78.367z M79.002,69.519
	c-2.44,0.214-6.475,0.373-6.018-0.798C73.586,67.177,76.966,68.53,79.002,69.519z M86.096,67.868
	c-1.926-1.173-5.02-3.299-4.12-4.183C83.164,62.519,85.045,65.75,86.096,67.868z M92.664,65.62
	c-2.149-0.769-5.638-2.234-4.849-3.236C88.852,61.062,91.266,63.796,92.664,65.62z M98.598,62.539
	c-2.255-0.519-5.934-1.573-5.223-2.636C94.312,58.505,97.014,60.911,98.598,62.539z M104.42,58.367
	c-2.349-0.232-6.203-0.812-5.588-1.926C99.644,54.973,102.642,56.98,104.42,58.367z M109.879,53.994
	c-2.431,0.14-6.442,0.174-5.957-0.991C104.56,51.47,107.882,52.937,109.879,53.994z M114.625,48.981
	c-2.448,0.289-6.504,0.578-6.076-0.601C109.113,46.83,112.55,48.064,114.625,48.981z M118.969,44.176
	c-2.464,0.538-6.562,1.245-6.23,0.051C113.174,42.655,116.777,43.5,118.969,44.176z M123.252,38.665
	c-2.466,0.54-6.562,1.244-6.231,0.051C117.458,37.146,121.06,37.99,123.252,38.665z M124.907,40.875
	c0.551,2.417,1.295,6.525,0.196,6.717C123.657,47.845,124.341,43.557,124.907,40.875z M120.621,46.387
	c0.553,2.416,1.297,6.526,0.199,6.716C119.373,53.356,120.058,49.068,120.621,46.387z M116.042,51.4
	c0.325,2.516,0.687,6.77-0.4,6.85C114.21,58.355,115.255,54.068,116.042,51.4z M111.146,56.53c0.185,2.564,0.315,6.888-0.761,6.901
	C108.969,63.447,110.229,59.177,111.146,56.53z M105.307,61.152c-0.153,2.646-0.589,7.084-1.625,6.931
	C102.321,67.882,104.083,63.716,105.307,61.152z M99.174,65.481c-0.419,2.678-1.294,7.145-2.282,6.864
	C95.592,71.977,97.726,67.946,99.174,65.481z M92.959,68.673c-0.649,2.68-1.903,7.127-2.84,6.738
	C88.886,74.896,91.327,71.023,92.959,68.673z M82.189,77.428c-1.093-0.747,1.814-4.271,3.724-6.383
	C84.888,73.669,83.022,77.997,82.189,77.428z"/>
<path opacity="0.9" fill="#FFFFFF" enable-background="new    " d="M163.918,69.713c0.93,0.195,1.861,0.349,2.796,0.453
	c0.905,0.1,1.804,0.135,2.69,0.141c0.022,0,0.043-0.003,0.062-0.007c1.812,0.281,9.102,1.451,8.376-1.51
	c-0.924-3.763-7.422-0.189-8.77,0.56c-1.589-0.019-3.181-0.191-4.761-0.497c2.229-1.206,5.951-3.566,4.351-5.594
	c-2.343-2.964-5.272,3.207-6.149,5.188c-1.717-0.44-3.418-1.032-5.105-1.75c2.429-0.719,6.865-2.318,5.499-4.596
	c-1.964-3.269-5.953,2.198-7.111,3.871c-1.478-0.705-2.94-1.502-4.382-2.378c2.543-0.445,7.15-1.532,5.972-3.884
	c-1.671-3.329-6.083,1.326-7.502,2.926c-1.541-1.002-3.055-2.086-4.536-3.232c2.598-0.114,7.594-0.586,6.616-3.053
	c-1.376-3.461-6.422,0.625-7.983,1.969c-1.316-1.068-2.606-2.178-3.86-3.322c2.746,0.272,7.435,0.453,6.784-1.952
	c-0.932-3.441-6.35-0.543-8.264,0.578c-0.172-0.162-0.346-0.325-0.514-0.487c-1.095-1.049-2.178-2.13-3.249-3.238
	c2.661,0.454,7.964,1.124,7.405-1.422c-0.789-3.592-6.858-0.722-8.609,0.16c-1.107-1.179-2.195-2.386-3.256-3.619
	c2.657,0.719,8.025,1.943,7.684-0.605c-0.486-3.609-7.011-1.387-8.812-0.728c-1.144-1.378-2.251-2.786-3.312-4.221
	c2.597,0.712,8.19,2.037,7.84-0.562c-0.485-3.589-6.936-1.413-8.779-0.74c-0.197-0.278-0.394-0.556-0.587-0.836
	c-0.374-0.54-1.035-0.087-0.662,0.454c0.261,0.377,0.525,0.752,0.792,1.124c-0.525,1.754-2.625,8.634,0.08,9.561
	c2.807,0.961,1.889-4.696,1.204-7.815c0.966,1.278,1.968,2.534,3,3.766c-0.525,1.753-2.627,8.634,0.079,9.561
	c2.906,0.995,1.82-5.102,1.132-8.134c1.05,1.209,2.124,2.392,3.215,3.551c-0.339,1.751-1.831,9.1,0.914,9.766
	c2.926,0.709,1.312-5.41,0.377-8.413c0.849,0.876,1.705,1.736,2.567,2.582c0.289,0.28,0.58,0.561,0.871,0.84
	c-0.018,0.118,0.006,0.255,0.067,0.37c-0.241,1.787-1.321,9.317,1.42,9.817c3.103,0.566,0.753-6.32-0.264-9.037
	c1.424,1.317,2.894,2.596,4.399,3.813c0.015,0.034,0.03,0.067,0.055,0.096c0,1.863-0.061,9.72,2.637,9.81
	c2.879,0.097,0.23-5.856-1.189-8.722c1.438,1.108,2.91,2.157,4.408,3.128c0.027,0.069,0.062,0.136,0.108,0.193
	c0.192,1.896,0.933,9.907,3.558,9.673c2.865-0.255-0.514-6.245-2.148-8.915c1.529,0.928,3.088,1.773,4.664,2.515
	c0.003,0.003,0.005,0.004,0.006,0.007c0.355,1.908,1.803,9.975,4.334,9.458c2.76-0.562-1.033-6.255-2.876-8.809
	c1.745,0.746,3.514,1.36,5.298,1.82c0.023,0.03,0.052,0.051,0.08,0.075c0.001,0.001,0.001,0.001,0.001,0.003
	c0.624,1.874,3.228,9.893,5.562,8.909C170.736,77.268,165.99,71.906,163.918,69.713z M176.971,68.721
	c0.456,1.171-3.578,1.012-6.019,0.798C172.99,68.53,176.367,67.177,176.971,68.721z M167.98,63.685
	c0.899,0.884-2.192,3.01-4.121,4.183C164.911,65.75,166.792,62.519,167.98,63.685z M162.143,62.383
	c0.787,1.004-2.701,2.467-4.85,3.236C158.689,63.796,161.104,61.062,162.143,62.383z M156.582,59.903
	c0.709,1.062-2.971,2.117-5.225,2.636C152.943,60.911,155.645,58.505,156.582,59.903z M151.123,56.44
	c0.615,1.116-3.236,1.694-5.587,1.926C147.314,56.98,150.312,54.973,151.123,56.44z M146.032,53.003
	c0.485,1.166-3.525,1.13-5.954,0.991C142.072,52.937,145.396,51.47,146.032,53.003z M141.404,48.38
	c0.431,1.179-3.627,0.89-6.075,0.601C137.407,48.064,140.843,46.83,141.404,48.38z M137.216,44.227
	c0.333,1.193-3.765,0.488-6.229-0.05C133.18,43.5,136.781,42.655,137.216,44.227z M132.938,38.716
	c0.328,1.193-3.768,0.488-6.233-0.051C128.895,37.99,132.497,37.146,132.938,38.716z M124.853,47.593
	c-1.1-0.192-0.355-4.301,0.197-6.717C125.613,43.557,126.298,47.845,124.853,47.593z M129.137,53.103
	c-1.1-0.191-0.354-4.3,0.197-6.716C129.896,49.068,130.583,53.356,129.137,53.103z M134.314,58.25
	c-1.088-0.08-0.726-4.334-0.401-6.85C134.701,54.068,135.747,58.355,134.314,58.25z M139.568,63.431
	c-1.077-0.013-0.944-4.337-0.762-6.901C139.727,59.177,140.986,63.447,139.568,63.431z M146.271,68.083
	c-1.035,0.154-1.471-4.283-1.623-6.929C145.873,63.716,147.635,67.882,146.271,68.083z M153.064,72.346
	c-0.987,0.28-1.861-4.186-2.282-6.864C152.23,67.946,154.363,71.977,153.064,72.346z M159.837,75.41
	c-0.937,0.391-2.19-4.057-2.84-6.736C158.63,71.023,161.068,74.896,159.837,75.41z M164.043,71.045
	c1.909,2.112,4.816,5.634,3.725,6.383C166.936,77.997,165.068,73.669,164.043,71.045z"/>
<g>
	<g>
		<path fill="#FFFFFF" d="M125.414,38.506c-0.438-1.063-2.473-6.622-0.479-6.847c2.25-0.252-0.324,6.32-0.629,7.318
			c-0.311,1.018,1.278,1.45,1.586,0.437c0.701-2.289,3.737-9.344-0.958-9.401c-4.152-0.05-1.926,6.952-1.108,8.93
			C124.226,39.91,125.818,39.489,125.414,38.506L125.414,38.506z"/>
	</g>
</g>
<ellipse opacity="0.6" fill="none" stroke="#B4B4B4" stroke-width="4" stroke-miterlimit="10" enable-background="new    " cx="124.845" cy="124.379" rx="116.236" ry="116.956"/>
</svg>
